# xmcd
#
# Track frame offsets:
#	150
#	20744
#	41408
#	61400
#	87246
#	115900
#	133631
#	139862
#	153058
#	161501
#	187516
#	206672
#	223937
#	233524
#
# Disc length: 3335 seconds
#
# Revision: 10
# Processed by: cddbd v1.5.2PL0 Copyright (c) Steve Scherf et al.
# Submitted via: Jack! The Knife 20 Magnifico
#
DISCID=b70d050e
DTITLE=Rage - Strings To A Web
DYEAR=2010
DGENRE=Metal
TTITLE0=The Edge Of Darkness
TTITLE1=Hunter And Prey
TTITLE2=Into The Light
TTITLE3=The Beggar's Last Dime
TTITLE4=Empty Hollow
TTITLE5=Strings To A Web
TTITLE6=Fatal Grace
TTITLE7=Connected
TTITLE8=Empty Hollow (Reprise)
TTITLE9=Saviour Of The Dead
TTITLE10=Hellgirl
TTITLE11=Purified
TTITLE12=Through Ages
TTITLE13=Tomorrow Never Comes
EXTD=Victor Smolski, Charlie Bauerfeind
EXTT0=Smolski, Wagner
EXTT1=Smolski, Wagner
EXTT2=Smolski, Wagner
EXTT3=Smolski, Wagner
EXTT4=Smolski, Wagner
EXTT5=Victor Smolski
EXTT6=Victor Smolski
EXTT7=Smolski, Wagner
EXTT8=Smolski, Wagner
EXTT9=Smolski, Wagner
EXTT10=Smolski, Wagner
EXTT11=Peter Wagner
EXTT12=Smolski, Wagner
EXTT13=Smolski, Wagner
PLAYORDER=
